<?xml version="1.0" encoding="UTF-8"?>
<svg id="Layer_1" xmlns="http://www.w3.org/2000/svg" version="1.1" viewBox="0 0 40 40">
  <!-- Generator: Adobe Illustrator 30.1.0, SVG Export Plug-In . SVG Version: 2.1.1 Build 136)  -->
  <defs>
    <style>
      .st0 {
        fill: #f1f2f2;
      }

      .st1 {
        fill: #4682b4;
      }
    </style>
  </defs>
  <path class="st1" d="M20,0h0c11.05,0,20,8.95,20,20h0c0,11.05-8.95,20-20,20h0C8.95,40,0,31.05,0,20h0C0,8.95,8.95,0,20,0Z"/>
  <g>
    <path class="st0" d="M21.68,29.67c0,.13-.08.21-.21.21h-.99c-.11,0-.19-.05-.24-.13L8.71,11.69l.05,17.98c0,.13-.08.21-.21.21h-.64c-.13,0-.21-.08-.21-.21l.03-18.73c0-.13.08-.21.21-.21h1.04c.11,0,.19.05.24.13l11.39,17.77.03-17.69c0-.13.08-.21.21-.21h.56c.13,0,.21.08.21.21l.05,18.73Z"/>
    <path class="st0" d="M21.7,20.54v9.12c0,.13-.08.21-.21.21h-.64c-.13,0-.21-.08-.21-.21l.03-18.73c0-.13.08-.21.21-.21h6.94c3.47,0,5.57,2,5.57,4.85s-1.97,4.83-5.28,4.96l6.29,9.07c.11.16.05.27-.13.27h-.83c-.11,0-.19-.05-.24-.13l-6.27-9.2h-5.23ZM27.68,19.64c2.99,0,4.72-1.63,4.72-4s-1.79-4-4.72-4h-6v8h6Z"/>
  </g>
</svg>