<?xml version="1.0" encoding="UTF-8"?>
<svg id="Layer_1" xmlns="http://www.w3.org/2000/svg" version="1.1" viewBox="0 0 40 40">
  <!-- Generator: Adobe Illustrator 30.5.1, SVG Export Plug-In . SVG Version: 2.1.4 Build 3)  -->
  <defs>
    <style>
      .st0 {
        isolation: isolate;
      }

      .st1 {
        fill: #4682b4;
      }

      .st2 {
        fill: #fff;
      }
    </style>
  </defs>
  <path class="st1" d="M20,0h0c11.05,0,20,8.95,20,20h0c0,11.05-8.95,20-20,20h0C8.95,40,0,31.05,0,20h0C0,8.95,8.95,0,20,0Z"/>
  <g>
    <g class="st0">
      <g class="st0">
        <g class="st0">
          <g class="st0">
            <path class="st2" d="M20.65,12.37h4.73c1.46,0,2.72.58,3.78,1.74.77.98,1.16,2.02,1.16,3.12v.17c0,1.34-.54,2.53-1.61,3.57-.58.48-1.14.81-1.69.99.72,1.23,1.78,3.07,3.18,5.52l-.02.02h-1.67c-.06-.05-.47-.78-1.24-2.17-.39-.69-.96-1.72-1.74-3.1h-3.47v5.25l-.02.02h-1.38s-.03,0-.04-.02v-15.08l.04-.02ZM22.05,13.82v6.96h3.33c1.14,0,2.1-.49,2.87-1.47.41-.62.62-1.27.62-1.96v-.1c0-1.05-.46-1.95-1.36-2.71-.65-.48-1.36-.72-2.15-.72h-3.31Z"/>
          </g>
        </g>
      </g>
    </g>
    <g class="st0">
      <g class="st0">
        <g class="st0">
          <g class="st0">
            <path class="st2" d="M11.01,12.37h1.76c.06.05,1.9,3.06,5.54,9.01.52.85,1.3,2.13,2.33,3.82h.02v-12.81l.02-.02h1.41l.02.02v15.08l-.02.02h-1.72c-.1-.11-.35-.52-.76-1.24-.04-.04-1.89-3.05-5.54-9.03-.34-.58-.87-1.43-1.57-2.56v12.81s-.03,0-.04.02h-1.45s-.03,0-.04-.02v-15.08l.04-.02Z"/>
          </g>
        </g>
      </g>
    </g>
  </g>
</svg>