<?xml version="1.0" encoding="UTF-8"?>
<svg id="Layer_1" xmlns="http://www.w3.org/2000/svg" version="1.1" viewBox="0 0 55 55">
  <!-- Generator: Adobe Illustrator 30.1.0, SVG Export Plug-In . SVG Version: 2.1.1 Build 136)  -->
  <defs>
    <style>
      .st0 {
        isolation: isolate;
      }

      .st1 {
        fill: #f2f2f2;
      }
    </style>
  </defs>
  <circle cx="27.5" cy="27.5" r="27.5"/>
  <g>
    <g class="st0">
      <g class="st0">
        <path class="st1" d="M13.94,15.04h1.95c.11.13.59.91,1.43,2.34,2.6,4.49,6.51,11.2,11.74,20.13V15.07s.04-.01.06-.03h1.2l.03.03v23.74l-.03.03h-1.95c-.06-.04-.37-.56-.91-1.56-2.73-4.64-6.81-11.61-12.23-20.91h-.03v22.44l-.03.03h-1.17c-.06,0-.11-.02-.13-.07V15.07l.06-.03Z"/>
      </g>
    </g>
    <g class="st0">
      <g class="st0">
        <path class="st1" d="M28.93,15.04h6.93c2.1,0,3.92.85,5.46,2.54,1.21,1.52,1.82,3.1,1.82,4.75v.49c0,1.54-.53,3.04-1.59,4.49-.98,1.21-2.22,2.04-3.74,2.47,1.15,2.02,2.87,5.03,5.17,9.04-.02,0-.03.01-.03.03h-1.5s-.39-.69-1.11-2.02c-.87-1.52-2.15-3.78-3.84-6.8-.13.02-.39.03-.78.03h-5.59v8.75l-.03.03h-1.17s-.04-.01-.07-.03V15.07l.07-.03ZM30.13,16.34v12.46h5.46c2.62,0,4.53-1.2,5.72-3.61.37-.87.55-1.7.55-2.5v-.26c0-1.56-.58-2.98-1.72-4.26-1.21-1.21-2.69-1.82-4.42-1.82h-5.59Z"/>
      </g>
    </g>
  </g>
</svg>