<?xml version="1.0" encoding="UTF-8"?>
<svg id="Layer_1" xmlns="http://www.w3.org/2000/svg" version="1.1" viewBox="0 0 55 55">
  <!-- Generator: Adobe Illustrator 30.5.1, SVG Export Plug-In . SVG Version: 2.1.4 Build 3)  -->
  <defs>
    <style>
      .st0 {
        isolation: isolate;
      }

      .st1 {
        fill: #fff;
      }
    </style>
  </defs>
  <path d="M27.5,0h0c15.19,0,27.5,12.31,27.5,27.5h0c0,15.19-12.31,27.5-27.5,27.5h0C12.31,55,0,42.69,0,27.5h0C0,12.31,12.31,0,27.5,0Z"/>
  <g>
    <g class="st0">
      <g class="st0">
        <g class="st0">
          <path class="st1" d="M28.36,17.38h6.27c1.94,0,3.61.77,5.01,2.3,1.02,1.3,1.53,2.67,1.53,4.14v.22c0,1.77-.71,3.35-2.14,4.74-.77.64-1.52,1.08-2.25,1.32.95,1.62,2.36,4.06,4.22,7.31l-.03.03h-2.22c-.07-.07-.62-1.03-1.64-2.88-.51-.91-1.28-2.28-2.3-4.11h-4.6v6.96l-.03.03h-1.84s-.04,0-.05-.03v-20l.05-.03ZM30.22,19.3v9.23h4.41c1.52,0,2.78-.65,3.81-1.94.55-.82.82-1.69.82-2.6v-.14c0-1.39-.6-2.58-1.81-3.59-.86-.64-1.81-.96-2.85-.96h-4.38Z"/>
        </g>
      </g>
    </g>
    <g class="st0">
      <g class="st0">
        <g class="st0">
          <path class="st1" d="M15.58,17.38h2.33c.07.07,2.52,4.05,7.34,11.94.69,1.13,1.73,2.82,3.1,5.07h.03v-16.98l.03-.03h1.86l.03.03v20l-.03.03h-2.27c-.13-.15-.47-.69-1.01-1.64-.05-.05-2.5-4.04-7.34-11.97-.46-.77-1.15-1.9-2.08-3.4v16.98s-.04,0-.05.03h-1.92s-.04,0-.05-.03v-20l.05-.03Z"/>
        </g>
      </g>
    </g>
  </g>
</svg>