<?xml version="1.0" encoding="UTF-8"?>
<svg id="Layer_1" xmlns="http://www.w3.org/2000/svg" version="1.1" viewBox="0 0 40 40">
  <!-- Generator: Adobe Illustrator 30.5.1, SVG Export Plug-In . SVG Version: 2.1.4 Build 3)  -->
  <defs>
    <style>
      .st0 {
        isolation: isolate;
      }

      .st1 {
        fill: #fff;
      }
    </style>
  </defs>
  <path class="st1" d="M20,0h0c11.05,0,20,8.95,20,20h0c0,11.05-8.95,20-20,20h0C8.95,40,0,31.05,0,20h0C0,8.95,8.95,0,20,0Z"/>
  <g>
    <g class="st0">
      <g class="st0">
        <path d="M20.64,12.5h4.65c1.43,0,2.67.57,3.72,1.71.76.96,1.14,1.98,1.14,3.07v.16c0,1.31-.53,2.49-1.58,3.51-.57.47-1.12.8-1.67.98.7,1.21,1.75,3.01,3.13,5.42l-.02.02h-1.64c-.05-.05-.46-.76-1.22-2.13-.38-.68-.95-1.69-1.71-3.05h-3.41v5.16l-.02.02h-1.36s-.03,0-.04-.02v-14.83l.04-.02ZM22.02,13.92v6.85h3.27c1.12,0,2.06-.48,2.82-1.44.41-.61.61-1.25.61-1.93v-.1c0-1.03-.45-1.92-1.34-2.66-.64-.47-1.34-.71-2.11-.71h-3.25Z"/>
      </g>
    </g>
    <g class="st0">
      <g class="st0">
        <path d="M11.16,12.5h1.73c.05.05,1.87,3.01,5.44,8.86.51.84,1.28,2.09,2.29,3.76h.02v-12.59l.02-.02h1.38l.02.02v14.83l-.02.02h-1.69c-.1-.11-.35-.51-.75-1.22-.04-.04-1.86-3-5.44-8.88-.34-.57-.85-1.41-1.54-2.52v12.59s-.03,0-.04.02h-1.42s-.03,0-.04-.02v-14.83l.04-.02Z"/>
      </g>
    </g>
  </g>
</svg>