<?xml version="1.0" encoding="UTF-8"?>
<svg id="Layer_1" xmlns="http://www.w3.org/2000/svg" version="1.1" viewBox="0 0 347.78 41.31">
  <!-- Generator: Adobe Illustrator 30.1.0, SVG Export Plug-In . SVG Version: 2.1.1 Build 136)  -->
  <defs>
    <style>
      .st0 {
        fill: #f1f2f2;
      }
    </style>
  </defs>
  <path class="st0" d="M.45.74h3.28c.18.22.98,1.53,2.41,3.94,4.38,7.55,10.96,18.83,19.74,33.85V.79s.07-.02.11-.05h2.02l.05.05v39.92l-.05.05h-3.28c-.11-.07-.62-.95-1.53-2.62C18.6,30.34,11.75,18.62,2.63,2.98h-.05v37.73l-.05.05H.56c-.11,0-.18-.04-.22-.11V.79l.11-.05Z"/>
  <path class="st0" d="M37.52.74h18.65v2.19h-16.57v16.79h13.45v2.08h-13.45v16.79h16.57v2.19h-18.7V.74h.05Z"/>
  <path class="st0" d="M74.77.74h2.79c.11.11.77,1.91,1.97,5.41,2.84,7.69,7.07,19.23,12.69,34.62h-2.24c-.11-.15-.4-.95-.88-2.41-.66-1.71-1.62-4.3-2.9-7.77h-20.02s-.62,1.57-1.75,4.59c-.44,1.24-1.11,3.1-2.02,5.58h-2.3c2.26-6.16,6.74-18.43,13.45-36.8.73-2,1.13-3.08,1.2-3.23ZM66.89,28.46h18.54c-1.57-4.23-4.65-12.65-9.24-25.27h-.05c-1.53,4.19-4.61,12.62-9.24,25.27Z"/>
  <path class="st0" d="M97.68.74h2.08v37.84h17.66v2.19h-19.8V.74h.05Z"/>
  <path class="st0" d="M136.62.74h11.65c3.54,0,6.6,1.42,9.19,4.27,2.04,2.55,3.06,5.21,3.06,7.98v.82c0,2.59-.89,5.1-2.68,7.55-1.64,2.04-3.74,3.43-6.29,4.16,1.93,3.39,4.83,8.46,8.7,15.2-.04,0-.05.02-.05.05h-2.52s-.66-1.17-1.86-3.39c-1.46-2.55-3.61-6.36-6.45-11.43-.22.04-.66.05-1.31.05h-9.41v14.71l-.05.05h-1.97s-.07-.02-.11-.05V.79l.11-.05ZM138.64,2.93v20.95h9.19c4.41,0,7.62-2.02,9.62-6.07.62-1.46.93-2.86.93-4.21v-.44c0-2.62-.97-5.01-2.9-7.16-2.04-2.04-4.52-3.06-7.44-3.06h-9.41Z"/>
  <path class="st0" d="M177.42.74h2.79c.11.11.77,1.91,1.97,5.41,2.84,7.69,7.07,19.23,12.69,34.62h-2.24c-.11-.15-.4-.95-.88-2.41-.66-1.71-1.62-4.3-2.9-7.77h-20.02s-.62,1.57-1.75,4.59c-.44,1.24-1.11,3.1-2.02,5.58h-2.3c2.26-6.16,6.74-18.43,13.45-36.8.73-2,1.13-3.08,1.2-3.23ZM169.54,28.46h18.54c-1.57-4.23-4.65-12.65-9.24-25.27h-.05c-1.53,4.19-4.61,12.62-9.24,25.27Z"/>
  <path class="st0" d="M215.7.74h.05c4.67,0,8.79,1.9,12.36,5.69,1.35,1.57,2.41,3.15,3.17,4.76v.05c-1.17.62-1.82.93-1.97.93-.51-1.38-1.64-3.03-3.39-4.92-3.03-2.88-6.44-4.32-10.23-4.32-4.3,0-8.09,1.9-11.38,5.69-2.73,3.61-4.1,7.67-4.1,12.2,0,4.89,1.64,9.21,4.92,12.96,1.79,1.75,3.21,2.84,4.27,3.28.55.33,1.46.69,2.73,1.09,1.2.29,2.26.44,3.17.44h.82c2.62,0,5.27-.93,7.93-2.79,1.42-1.02,2.7-2.33,3.83-3.94,1.49-2.19,2.46-4.52,2.9-7,.11-.18.24-.8.38-1.86h-11.98s-.02-.07-.05-.11v-2.02h14.27c0,4.19-1.17,8.17-3.5,11.92-2.33,3.46-5.47,5.89-9.41,7.27-1.6.47-3.21.71-4.81.71-4.48,0-8.48-1.77-11.98-5.3-3.79-4.16-5.69-9.04-5.69-14.66v-.16c0-5.54,1.9-10.43,5.69-14.66,3.57-3.5,7.56-5.25,11.98-5.25Z"/>
  <path class="st0" d="M241.24.74h1.97l.05.05v18.92h19.63V.79s.07-.02.11-.05h2.02l.05.05v39.92l-.05.05h-2.02l-.11-.05v-18.92h-19.63v18.92l-.05.05h-1.97s-.07-.02-.11-.05V.79l.11-.05Z"/>
  <path class="st0" d="M285.37.74h2.79c.11.11.77,1.91,1.97,5.41,2.84,7.69,7.07,19.23,12.69,34.62h-2.24c-.11-.15-.4-.95-.88-2.41-.66-1.71-1.62-4.3-2.9-7.77h-20.02s-.62,1.57-1.75,4.59c-.44,1.24-1.11,3.1-2.02,5.58h-2.3c2.26-6.16,6.74-18.43,13.45-36.8.73-2,1.13-3.08,1.2-3.23ZM277.49,28.46h18.54c-1.57-4.23-4.65-12.65-9.24-25.27h-.05c-1.53,4.19-4.61,12.62-9.24,25.27Z"/>
  <path class="st0" d="M308.34.74h3.28c.18.22.98,1.53,2.41,3.94,4.38,7.55,10.96,18.83,19.74,33.85V.79s.07-.02.11-.05h2.02l.05.05v39.92l-.05.05h-3.28c-.11-.07-.62-.95-1.53-2.62-4.59-7.8-11.45-19.52-20.56-35.16h-.05v37.73l-.05.05h-1.97c-.11,0-.18-.04-.22-.11V.79l.11-.05Z"/>
  <path class="st0" d="M347.49.74v40.03h-2.13V.74h2.13Z"/>
</svg>